<?xml version="1.0" encoding="UTF-8"?>
<svg id="Calque_2" data-name="Calque 2" xmlns="http://www.w3.org/2000/svg" xmlns:xlink="http://www.w3.org/1999/xlink" viewBox="0 0 11.41 10.86">
  <defs>
    <style>
      .cls-1 {
        clip-path: url(#clippath);
      }

      .cls-2 {
        fill: none;
      }

      .cls-2, .cls-3 {
        stroke-width: 0px;
      }

      .cls-4 {
        clip-path: url(#clippath-1);
      }

      .cls-5 {
        clip-path: url(#clippath-3);
      }

      .cls-6 {
        clip-path: url(#clippath-2);
      }
    </style>
    <clipPath id="clippath">
      <rect class="cls-2" width="11.41" height="10.86"/>
    </clipPath>
    <clipPath id="clippath-1">
      <rect class="cls-2" y="0" width="11.41" height="10.86"/>
    </clipPath>
    <clipPath id="clippath-2">
      <rect class="cls-2" y="0" width="11.41" height="10.86"/>
    </clipPath>
    <clipPath id="clippath-3">
      <rect class="cls-2" x="-293.02" y="-416.29" width="595.28" height="841.89"/>
    </clipPath>
  </defs>
  <g id="Calque_1-2" data-name="Calque 1">
    <g class="cls-1">
      <g class="cls-4">
        <g class="cls-6">
          <g class="cls-5">
            <path class="cls-3" d="m11.31,1.43L7.15.01s-.09,0-.12.02c-.03.03-.06.07-.06.11v.9h-.94C2.25,1.05,0,2.78,0,5.03c0,1.29.98,2.24,2.49,2.95,0,0,.39.17.5-.02.14-.26-.25-.42-.25-.42-1.05-.55-1.78-1.41-1.78-2.32,0-1.67,1.87-2.99,4.95-2.99h1.07v.75s.02.09.06.11c.04.03.08.04.12.02l4.16-1.42c.06-.02.1-.07.1-.13s-.04-.11-.1-.13"/>
            <path class="cls-3" d="m8.5,4.45c1.05.55,1.76,1.41,1.76,2.32,0,1.67-1.85,2.99-4.93,2.99H.1v1.1h5.11c3.77,0,6.14-1.65,6.14-3.9,0-1.29-1.11-2.27-2.62-2.98,0,0-.38-.14-.48.05-.14.26.25.42.25.42"/>
          </g>
        </g>
      </g>
    </g>
  </g>
</svg>