<?xml version="1.0" encoding="UTF-8"?>
<svg id="Calque_2" data-name="Calque 2" xmlns="http://www.w3.org/2000/svg" viewBox="0 0 11.35 9.22">
  <defs>
    <style>
      .cls-1 {
        stroke-width: 0px;
      }
    </style>
  </defs>
  <g id="Calque_1-2" data-name="Calque 1">
    <path class="cls-1" d="m10.81,2.04h-5.7l5.29-1.11c.25-.05.42-.3.37-.56-.06-.26-.3-.42-.56-.36L.37,2.07s0,0-.01,0c-.02,0-.03.01-.04.02C.11,2.17-.01,2.36,0,2.57c0,0,0,0,0,.01v6.11c0,.3.24.54.54.54h10.28c.3,0,.54-.24.54-.54V2.58c0-.3-.24-.54-.54-.54m-6.09,2.45h-2.22v.92h1.93v.69h-1.93v1.61h-.63v-3.92h2.85v.69Zm4.91,3.23h-.63v-3.03h-.12l-.8,3.03h-.67l-.81-3.03h-.12v3.03h-.63v-3.92h1.19l.69,2.61.69-2.61h1.19v3.92Z"/>
  </g>
</svg>