<?xml version="1.0" encoding="UTF-8"?>
<svg id="Calque_2" data-name="Calque 2" xmlns="http://www.w3.org/2000/svg" xmlns:xlink="http://www.w3.org/1999/xlink" viewBox="0 0 14.41 10.66">
  <defs>
    <style>
      .cls-1 {
        clip-path: url(#clippath);
      }

      .cls-2 {
        fill: none;
      }

      .cls-2, .cls-3 {
        stroke-width: 0px;
      }

      .cls-4 {
        clip-path: url(#clippath-1);
      }

      .cls-5 {
        clip-path: url(#clippath-2);
      }
    </style>
    <clipPath id="clippath">
      <rect class="cls-2" x="0" width="14.41" height="10.66"/>
    </clipPath>
    <clipPath id="clippath-1">
      <rect class="cls-2" x="0" y="0" width="14.41" height="10.66"/>
    </clipPath>
    <clipPath id="clippath-2">
      <rect class="cls-2" x="0" y="0" width="14.41" height="10.66"/>
    </clipPath>
  </defs>
  <g id="Calque_1-2" data-name="Calque 1">
    <g class="cls-1">
      <g class="cls-4">
        <g class="cls-5">
          <path class="cls-3" d="m9.02,2.5h-3.72v-.95c0-.22.18-.4.4-.4h2.92c.22,0,.4.18.4.4v.95Zm4.08,0h-2.93v-.95C10.17.69,9.48,0,8.62,0h-2.92C4.85,0,4.15.69,4.15,1.55v.95H1.3c-.72,0-1.3.58-1.3,1.3v1.17h3.01v-.62c0-.09.07-.16.16-.16h1.97c.09,0,.16.07.16.16v.62h3.72v-.62c0-.09.07-.16.16-.16h1.97c.09,0,.16.07.16.16v.62h3.09v-1.17c0-.71-.58-1.3-1.3-1.3m-1.79,4.38c0,.09-.07.16-.16.16h-1.97c-.09,0-.16-.07-.16-.16v-.63h-3.72v.63c0,.09-.07.16-.16.16h-1.97c-.09,0-.16-.07-.16-.16v-.63H0v3.11c0,.71.59,1.3,1.3,1.3h11.81c.71,0,1.3-.58,1.3-1.3v-3.11h-3.09v.63"/>
        </g>
      </g>
    </g>
  </g>
</svg>